<?xml version="1.0" encoding="utf-8" standalone="no"?>
<!DOCTYPE svg PUBLIC "-//W3C//DTD SVG 1.1//EN"
  "http://www.w3.org/Graphics/SVG/1.1/DTD/svg11.dtd">
<!-- Created with matplotlib (https://matplotlib.org/) -->
<svg height="159.936364pt" version="1.1" viewBox="0 0 1133.9 159.936364" width="1133.9pt" xmlns="http://www.w3.org/2000/svg" xmlns:xlink="http://www.w3.org/1999/xlink">
 <metadata>
  <rdf:RDF xmlns:cc="http://creativecommons.org/ns#" xmlns:dc="http://purl.org/dc/elements/1.1/" xmlns:rdf="http://www.w3.org/1999/02/22-rdf-syntax-ns#">
   <cc:Work>
    <dc:type rdf:resource="http://purl.org/dc/dcmitype/StillImage"/>
    <dc:date>2022-01-27T08:58:03.819940</dc:date>
    <dc:format>image/svg+xml</dc:format>
    <dc:creator>
     <cc:Agent>
      <dc:title>Matplotlib v3.3.1, https://matplotlib.org/</dc:title>
     </cc:Agent>
    </dc:creator>
   </cc:Work>
  </rdf:RDF>
 </metadata>
 <defs>
  <style type="text/css">*{stroke-linecap:butt;stroke-linejoin:round;}</style>
 </defs>
 <g id="figure_1">
  <g id="patch_1">
   <path d="M 0 159.936364 
L 1133.9 159.936364 
L 1133.9 0 
L 0 0 
z
" style="fill:#ffffff;"/>
  </g>
  <g id="axes_1">
   <g id="patch_2">
    <path d="M 10.7 149.236364 
L 1126.7 149.236364 
L 1126.7 7.2 
L 10.7 7.2 
z
" style="fill:#ffffff;"/>
   </g>
   <g id="matplotlib.axis_1"/>
   <g id="matplotlib.axis_2"/>
   <g id="patch_3">
    <path d="M 10.7 149.236364 
L 10.7 7.2 
" style="fill:none;stroke:#000000;stroke-linecap:square;stroke-linejoin:miter;stroke-width:0.8;"/>
   </g>
   <g id="patch_4">
    <path d="M 1126.7 149.236364 
L 1126.7 7.2 
" style="fill:none;stroke:#000000;stroke-linecap:square;stroke-linejoin:miter;stroke-width:0.8;"/>
   </g>
   <g id="patch_5">
    <path d="M 10.7 149.236364 
L 1126.7 149.236364 
" style="fill:none;stroke:#000000;stroke-linecap:square;stroke-linejoin:miter;stroke-width:0.8;"/>
   </g>
   <g id="patch_6">
    <path d="M 10.7 7.2 
L 1126.7 7.2 
" style="fill:none;stroke:#000000;stroke-linecap:square;stroke-linejoin:miter;stroke-width:0.8;"/>
   </g>
   <g id="PolyCollection_1"/>
   <g id="PathCollection_1"/>
   <g id="PathCollection_2">
    <path clip-path="url(#p70b25ad8cd)" d="M -2201.917855 86.230324 
L -2171.818644 70.35573 
L -2202.577846 55.801117 
z
" style="fill:#dddddd;stroke:#dddddd;stroke-width:0.5;"/>
    <path clip-path="url(#p70b25ad8cd)" d="M -2201.562874 148.578933 
L -2171.138854 133.33609 
L -2201.58754 118.14258 
z
" style="fill:#dddddd;stroke:#dddddd;stroke-width:0.5;"/>
   </g>
   <g id="PathCollection_3">
    <path clip-path="url(#p70b25ad8cd)" d="M -1 86.74898 
L 341.679222 82.899295 
L 904.776298 71.394349 
L 1134.9 63.958341 
" style="fill:none;stroke:#555555;stroke-width:0.5;"/>
    <path clip-path="url(#p70b25ad8cd)" d="M -1 150.203077 
L 342.787105 148.171091 
L 908.735055 136.741222 
L 1134.9 129.393131 
" style="fill:none;stroke:#555555;stroke-width:0.5;"/>
   </g>
   <g id="PathCollection_4">
    <path clip-path="url(#p70b25ad8cd)" d="M -1 27.67123 
L 341.005564 22.807767 
L 903.404633 4.284196 
L 1089.8335 -1 
" style="fill:none;stroke:#555555;stroke-width:0.5;"/>
    <path clip-path="url(#p70b25ad8cd)" d="M -1 86.747949 
L 342.421869 82.889149 
L 907.446582 71.339564 
L 1134.9 63.980022 
" style="fill:none;stroke:#555555;stroke-width:0.5;"/>
   </g>
   <g id="PatchCollection_1">
    <path clip-path="url(#p70b25ad8cd)" d="M 902.821633 124.512953 
L 901.506485 83.95245 
L 998.851691 80.796095 
L 1000.166839 121.356597 
z
" style="fill:#ff0000;fill-opacity:0.2;stroke:#ff0000;stroke-opacity:0.2;stroke-width:0.5;"/>
    <path clip-path="url(#p70b25ad8cd)" d="M 931.334419 123.587687 
L 930.01927 83.027185 
L 1027.364476 79.870829 
L 1028.679624 120.431332 
z
" style="fill:#ff0000;fill-opacity:0.2;stroke:#ff0000;stroke-opacity:0.2;stroke-width:0.5;"/>
    <path clip-path="url(#p70b25ad8cd)" d="M 959.849233 122.664451 
L 958.534085 82.103948 
L 1055.879291 78.947593 
L 1057.194439 119.508095 
z
" style="fill:#ff0000;fill-opacity:0.2;stroke:#ff0000;stroke-opacity:0.2;stroke-width:0.5;"/>
    <path clip-path="url(#p70b25ad8cd)" d="M 506.78452 132.489235 
L 505.960117 91.915791 
L 603.336381 89.937223 
L 604.160785 130.510667 
z
" style="stroke:#000000;stroke-width:0.5;"/>
    <path clip-path="url(#p70b25ad8cd)" d="M 874.306819 125.438218 
L 872.99167 84.877716 
L 970.336876 81.72136 
L 971.652024 122.281862 
z
" style="fill:#ff0000;stroke:#ff0000;stroke-width:0.5;"/>
   </g>
   <g id="EllipseCollection_1">
    <path clip-path="url(#p70b25ad8cd)" d="M 555.060451 112.937956 
C 555.517854 112.937956 555.956584 112.756228 556.280017 112.432795 
C 556.60345 112.109363 556.785178 111.670632 556.785178 111.213229 
C 556.785178 110.755826 556.60345 110.317096 556.280017 109.993663 
C 555.956584 109.67023 555.517854 109.488502 555.060451 109.488502 
C 554.603048 109.488502 554.164317 109.67023 553.840885 109.993663 
C 553.517452 110.317096 553.335724 110.755826 553.335724 111.213229 
C 553.335724 111.670632 553.517452 112.109363 553.840885 112.432795 
C 554.164317 112.756228 554.603048 112.937956 555.060451 112.937956 
z
"/>
    <path clip-path="url(#p70b25ad8cd)" d="M 583.461636 112.361695 
C 583.919039 112.361695 584.35777 112.179966 584.681203 111.856534 
C 585.004635 111.533101 585.186364 111.09437 585.186364 110.636967 
C 585.186364 110.179564 585.004635 109.740834 584.681203 109.417401 
C 584.35777 109.093968 583.919039 108.91224 583.461636 108.91224 
C 583.004233 108.91224 582.565503 109.093968 582.24207 109.417401 
C 581.918637 109.740834 581.736909 110.179564 581.736909 110.636967 
C 581.736909 111.09437 581.918637 111.533101 582.24207 111.856534 
C 582.565503 112.179966 583.004233 112.361695 583.461636 112.361695 
z
"/>
    <path clip-path="url(#p70b25ad8cd)" d="M 611.862822 111.783404 
C 612.320225 111.783404 612.758955 111.601675 613.082388 111.278243 
C 613.405821 110.95481 613.587549 110.516079 613.587549 110.058676 
C 613.587549 109.601273 613.405821 109.162543 613.082388 108.83911 
C 612.758955 108.515677 612.320225 108.333949 611.862822 108.333949 
C 611.405419 108.333949 610.966688 108.515677 610.643255 108.83911 
C 610.319823 109.162543 610.138095 109.601273 610.138095 110.058676 
C 610.138095 110.516079 610.319823 110.95481 610.643255 111.278243 
C 610.966688 111.601675 611.405419 111.783404 611.862822 111.783404 
z
"/>
    <path clip-path="url(#p70b25ad8cd)" d="M 640.266036 111.207142 
C 640.723439 111.207142 641.16217 111.025414 641.485603 110.701981 
C 641.809035 110.378548 641.990764 109.939818 641.990764 109.482415 
C 641.990764 109.025012 641.809035 108.586281 641.485603 108.262848 
C 641.16217 107.939415 640.723439 107.757687 640.266036 107.757687 
C 639.808633 107.757687 639.369903 107.939415 639.04647 108.262848 
C 638.723037 108.586281 638.541309 109.025012 638.541309 109.482415 
C 638.541309 109.939818 638.723037 110.378548 639.04647 110.701981 
C 639.369903 111.025414 639.808633 111.207142 640.266036 111.207142 
z
"/>
   </g>
   <g id="line2d_1">
    <path clip-path="url(#p70b25ad8cd)" d="M 922.321847 103.579789 
L 950.836662 102.654524 
L 979.349447 101.729258 
L 1007.864262 100.806022 
" style="fill:none;stroke:#ff0000;stroke-linecap:square;stroke-width:1.5;"/>
    <defs>
     <path d="M -3.75 3.75 
L 3.75 -3.75 
M -3.75 -3.75 
L 3.75 3.75 
" id="m5d0896eaaf" style="stroke:#ff0000;"/>
    </defs>
    <g clip-path="url(#p70b25ad8cd)">
     <use style="fill:#ff0000;stroke:#ff0000;" x="922.321847" xlink:href="#m5d0896eaaf" y="103.579789"/>
     <use style="fill:#ff0000;stroke:#ff0000;" x="950.836662" xlink:href="#m5d0896eaaf" y="102.654524"/>
     <use style="fill:#ff0000;stroke:#ff0000;" x="979.349447" xlink:href="#m5d0896eaaf" y="101.729258"/>
     <use style="fill:#ff0000;stroke:#ff0000;" x="1007.864262" xlink:href="#m5d0896eaaf" y="100.806022"/>
    </g>
   </g>
  </g>
 </g>
 <defs>
  <clipPath id="p70b25ad8cd">
   <rect height="142.036364" width="1116" x="10.7" y="7.2"/>
  </clipPath>
 </defs>
</svg>
