<?xml version="1.0" encoding="UTF-8" standalone="no"?>
<!-- Created with matplotlib (https://matplotlib.org/) -->

<svg
   height="170.081818pt"
   version="1.1"
   viewBox="0 0 1133.9 170.081818"
   width="1133.9pt"
   id="svg170"
   sodipodi:docname="DEU_Gar-1_1_T-1_13.svg"
   inkscape:version="1.1.1 (26b7af14f2, 2022-01-19)"
   xmlns:inkscape="http://www.inkscape.org/namespaces/inkscape"
   xmlns:sodipodi="http://sodipodi.sourceforge.net/DTD/sodipodi-0.dtd"
   xmlns:xlink="http://www.w3.org/1999/xlink"
   xmlns="http://www.w3.org/2000/svg"
   xmlns:svg="http://www.w3.org/2000/svg"
   xmlns:rdf="http://www.w3.org/1999/02/22-rdf-syntax-ns#"
   xmlns:cc="http://creativecommons.org/ns#"
   xmlns:dc="http://purl.org/dc/elements/1.1/">
  <sodipodi:namedview
     id="namedview172"
     pagecolor="#ffffff"
     bordercolor="#666666"
     borderopacity="1.0"
     inkscape:pageshadow="2"
     inkscape:pageopacity="0.0"
     inkscape:pagecheckerboard="0"
     inkscape:document-units="pt"
     showgrid="false"
     inkscape:zoom="0.44845224"
     inkscape:cx="959.96845"
     inkscape:cy="226.33402"
     inkscape:window-width="1848"
     inkscape:window-height="1016"
     inkscape:window-x="72"
     inkscape:window-y="27"
     inkscape:window-maximized="1"
     inkscape:current-layer="PatchCollection_1" />
  <metadata
     id="metadata2">
    <rdf:RDF>
      <cc:Work>
        <dc:type
           rdf:resource="http://purl.org/dc/dcmitype/StillImage" />
        <dc:date>2022-01-26T22:23:33.759219</dc:date>
        <dc:format>image/svg+xml</dc:format>
        <dc:creator>
          <cc:Agent>
            <dc:title>Matplotlib v3.3.1, https://matplotlib.org/</dc:title>
          </cc:Agent>
        </dc:creator>
      </cc:Work>
    </rdf:RDF>
  </metadata>
  <defs
     id="defs6">
    <style
       type="text/css"
       id="style4">*{stroke-linecap:butt;stroke-linejoin:round;}</style>
    <clipPath
       id="p668b00f55f-3">
      <rect
         height="152.18182"
         width="1116"
         x="10.7"
         y="7.1999998"
         id="rect165-6" />
    </clipPath>
    <clipPath
       id="clipPath999">
      <rect
         height="152.18182"
         width="1116"
         x="10.7"
         y="7.1999998"
         id="rect997" />
    </clipPath>
    <clipPath
       id="clipPath1003">
      <rect
         height="152.18182"
         width="1116"
         x="10.7"
         y="7.1999998"
         id="rect1001" />
    </clipPath>
    <clipPath
       id="clipPath1007">
      <rect
         height="152.18182"
         width="1116"
         x="10.7"
         y="7.1999998"
         id="rect1005" />
    </clipPath>
    <clipPath
       id="clipPath1011">
      <rect
         height="152.18182"
         width="1116"
         x="10.7"
         y="7.1999998"
         id="rect1009" />
    </clipPath>
    <clipPath
       id="clipPath1015">
      <rect
         height="152.18182"
         width="1116"
         x="10.7"
         y="7.1999998"
         id="rect1013" />
    </clipPath>
    <clipPath
       id="clipPath1019">
      <rect
         height="152.18182"
         width="1116"
         x="10.7"
         y="7.1999998"
         id="rect1017" />
    </clipPath>
  </defs>
  <g
     id="figure_1">
    <g
       id="patch_1">
      <path
         d="M 0 170.081818  L 1133.9 170.081818  L 1133.9 0  L 0 0  z "
         style="fill:#ffffff;"
         id="path8" />
    </g>
    <g
       id="axes_1">
      <g
         id="patch_2">
        <path
           d="M 10.7 159.381818  L 1126.7 159.381818  L 1126.7 7.2  L 10.7 7.2  z "
           style="fill:#ffffff;"
           id="path11" />
      </g>
      <g
         id="matplotlib.axis_1" />
      <g
         id="matplotlib.axis_2" />
      <g
         id="patch_3">
        <path
           d="M 10.7 159.381818  L 10.7 7.2  "
           style="fill:none;stroke:#000000;stroke-linecap:square;stroke-linejoin:miter;stroke-width:0.8;"
           id="path16" />
      </g>
      <g
         id="patch_4">
        <path
           d="M 1126.7 159.381818  L 1126.7 7.2  "
           style="fill:none;stroke:#000000;stroke-linecap:square;stroke-linejoin:miter;stroke-width:0.8;"
           id="path19" />
      </g>
      <g
         id="patch_5">
        <path
           d="M 10.7 159.381818  L 1126.7 159.381818  "
           style="fill:none;stroke:#000000;stroke-linecap:square;stroke-linejoin:miter;stroke-width:0.8;"
           id="path22" />
      </g>
      <g
         id="patch_6">
        <path
           d="M 10.7 7.2  L 1126.7 7.2  "
           style="fill:none;stroke:#000000;stroke-linecap:square;stroke-linejoin:miter;stroke-width:0.8;"
           id="path25" />
      </g>
      <g
         id="PolyCollection_1" />
      <g
         id="PathCollection_1" />
      <g
         id="PathCollection_2">
        <path
           clip-path="url(#p668b00f55f)"
           d="M -1877.760324 245.78518  L -1846.431331 232.501375  L -1875.855771 215.408464  z "
           style="fill:#dddddd;stroke:#dddddd;stroke-width:0.5;"
           id="path30" />
        <path
           clip-path="url(#p668b00f55f)"
           d="M -1875.642704 186.618753  L -1845.880763 170.120507  L -1876.936525 156.209901  z "
           style="fill:#dddddd;stroke:#dddddd;stroke-width:0.5;"
           id="path32" />
        <path
           clip-path="url(#p668b00f55f)"
           d="M 1699.884528 122.648581  L 1730.518301 107.831793  L 1700.284607 92.214847  z "
           style="fill:#dddddd;stroke:#dddddd;stroke-width:0.5;"
           id="path34" />
        <path
           clip-path="url(#p668b00f55f)"
           d="M 1698.95654 69.670744  L 1725.661067 48.579667  L 1692.765489 39.870691  z "
           style="fill:#dddddd;stroke:#dddddd;stroke-width:0.5;"
           id="path36" />
        <path
           clip-path="url(#p668b00f55f)"
           d="M 2111.019605 109.007742  L 2141.364629 93.608235  L 2110.838009 78.57192  z "
           style="fill:#dddddd;stroke:#dddddd;stroke-width:0.5;"
           id="path38" />
      </g>
      <g
         id="PathCollection_3">
        <path
           clip-path="url(#p668b00f55f)"
           d="M -1 161.532731  L 288.00368 148.544444  L 736.081738 138.189993  L 736.74728 138.17376  L 1134.9 133.845552  "
           style="fill:none;stroke:#555555;stroke-width:0.5;"
           id="path41" />
        <path
           clip-path="url(#p668b00f55f)"
           d="M -1 102.454873  L 735.456778 77.365964  L 1134.9 73.023257  "
           style="fill:none;stroke:#555555;stroke-width:0.5;"
           id="path43" />
        <path
           clip-path="url(#p668b00f55f)"
           style="fill:none;stroke:#555555;stroke-width:0.5;"
           id="path45" />
        <path
           clip-path="url(#p668b00f55f)"
           style="fill:none;stroke:#555555;stroke-width:0.5;"
           id="path47" />
        <path
           clip-path="url(#p668b00f55f)"
           style="fill:none;stroke:#555555;stroke-width:0.5;"
           id="path49" />
      </g>
      <g
         id="PathCollection_4">
        <path
           clip-path="url(#p668b00f55f)"
           d="M -1 102.454587  L 286.100393 92.673425  L 734.677607 77.392545  L 736.083767 77.377124  L 1134.9 73.027428  "
           style="fill:none;stroke:#555555;stroke-width:0.5;"
           id="path52" />
        <path
           clip-path="url(#p668b00f55f)"
           d="M -1 41.609523  L 734.166276 16.558167  L 1134.9 19.392384  "
           style="fill:none;stroke:#555555;stroke-width:0.5;"
           id="path54" />
        <path
           clip-path="url(#p668b00f55f)"
           style="fill:none;stroke:#555555;stroke-width:0.5;"
           id="path56" />
        <path
           clip-path="url(#p668b00f55f)"
           style="fill:none;stroke:#555555;stroke-width:0.5;"
           id="path58" />
        <path
           clip-path="url(#p668b00f55f)"
           style="fill:none;stroke:#555555;stroke-width:0.5;"
           id="path60" />
      </g>
      <g
         id="PatchCollection_1">
        <path
           style="fill:#000000;fill-opacity:0.2;stroke-width:1.3669;stop-color:#000000"
           d="m 561.75315,137.48829 c -0.49782,-8.42712 -1.92316,-53.128803 -1.70112,-53.35084 0.12454,-0.124553 39.96689,-1.578046 88.53853,-3.229996 84.56992,-2.876264 90.35842,-3.023272 136.6032,-3.469215 26.56012,-0.256125 52.64122,-0.573772 57.95805,-0.705877 l 9.66697,-0.240195 0.19778,30.027693 c 0.10875,16.51524 0.18007,30.04677 0.15847,30.07009 -0.0217,0.0233 -28.91985,0.36389 -64.2183,0.75683 -35.29852,0.39294 -70.85835,0.88979 -79.0218,1.10409 -24.26017,0.63689 -141.26075,3.3234 -144.72853,3.32319 l -3.20008,-1.9e-4 z"
           id="path1390" />
        <path
           clip-path="url(#p668b00f55f)"
           d="M 500.411473 130.850492  L 499.477873 98.195472  L 590.911931 95.581391  L 591.845531 128.236412  z "
           style="fill:#0065bd;fill-opacity:0.2;stroke:#0065bd;stroke-opacity:0.2;stroke-width:0.5;"
           id="path63" />
        <path
           clip-path="url(#p668b00f55f)"
           d="M 532.862724 129.921169  L 531.929124 97.266148  L 623.363182 94.652068  L 624.296782 127.307088  z "
           style="fill:#0065bd;fill-opacity:0.2;stroke:#0065bd;stroke-opacity:0.2;stroke-width:0.5;"
           id="path65" />
        <path
           clip-path="url(#p668b00f55f)"
           d="M 565.316004 128.993874  L 564.382404 96.338853  L 655.816462 93.724773  L 656.750062 126.379794  z "
           style="fill:#0065bd;fill-opacity:0.2;stroke:#0065bd;stroke-opacity:0.2;stroke-width:0.5;"
           id="path67" />
        <path
           clip-path="url(#p668b00f55f)"
           d="M 597.767255 128.066579  L 596.833655 95.411559  L 688.267713 92.797479  L 689.201313 125.452499  z "
           style="fill:#0065bd;fill-opacity:0.2;stroke:#0065bd;stroke-opacity:0.2;stroke-width:0.5;"
           id="path69" />
        <path
           clip-path="url(#p668b00f55f)"
           d="M 630.220535 127.139285  L 629.286935 94.484264  L 720.720993 91.870184  L 721.654593 124.525205  z "
           style="fill:#0065bd;fill-opacity:0.2;stroke:#0065bd;stroke-opacity:0.2;stroke-width:0.5;"
           id="path71" />
        <path
           clip-path="url(#p668b00f55f)"
           d="M 662.671786 126.209961  L 661.738186 93.554941  L 753.172243 90.940861  L 754.105843 123.595881  z "
           style="fill:#0065bd;fill-opacity:0.2;stroke:#0065bd;stroke-opacity:0.2;stroke-width:0.5;"
           id="path73" />
        <path
           clip-path="url(#p668b00f55f)"
           d="M 694.820139 124.562483  L 694.464453 91.896056  L 785.93045 90.900135  L 786.286136 123.566562  z "
           style="fill:#0065bd;fill-opacity:0.2;stroke:#0065bd;stroke-opacity:0.2;stroke-width:0.5;"
           id="path75" />
        <path
           clip-path="url(#p668b00f55f)"
           d="M 604.526506 71.703653  L 603.144638 31.145369  L 700.484519 27.828885  L 701.866388 68.387169  z "
           style="stroke:#000000;stroke-width:0.5;"
           id="path77" />
        <path
           clip-path="url(#p668b00f55f)"
           d="M 853.507868 126.792009  L 853.066022 86.212596  L 950.456612 85.152166  L 950.898458 125.731578  z "
           style="stroke:#000000;stroke-width:0.5;"
           id="path79" />
        <path
           clip-path="url(#p668b00f55f)"
           d="M -13.532623 152.78825  L -15.134377 112.238054  L 82.186092 108.393845  L 83.787846 148.94404  z "
           style="stroke:#000000;stroke-width:0.5;"
           id="path81" />
        <path
           clip-path="url(#p668b00f55f)"
           d="M 467.958193 131.777787  L 467.024593 99.122766  L 558.458651 96.508686  L 559.392251 129.163707  z "
           style="fill:#0065bd;stroke:#0065bd;stroke-width:0.5;"
           id="path85" />
      </g>
      <g
         id="line2d_1">
        <path
           clip-path="url(#p668b00f55f)"
           d="M 513.208422 114.143236  L 545.661702 113.215942  L 578.112953 112.286618  L 610.566233 111.359324  L 643.017484 110.432029  L 675.470764 109.504735  L 707.922015 108.575411  L 740.375295 107.731309  "
           style="fill:none;stroke:#0065bd;stroke-linecap:square;stroke-width:1.5;"
           id="path88" />
        <defs
           id="defs91">
          <path
             d="M -3.75 3.75  L 3.75 -3.75  M -3.75 -3.75  L 3.75 3.75  "
             id="mcc50b5a211"
             style="stroke:#0065bd;" />
        </defs>
        <g
           clip-path="url(#p668b00f55f)"
           id="g109">
          <use
             style="fill:#0065bd;stroke:#0065bd;"
             x="513.208422"
             xlink:href="#mcc50b5a211"
             y="114.143236"
             id="use93" />
          <use
             style="fill:#0065bd;stroke:#0065bd;"
             x="545.661702"
             xlink:href="#mcc50b5a211"
             y="113.215942"
             id="use95" />
          <use
             style="fill:#0065bd;stroke:#0065bd;"
             x="578.112953"
             xlink:href="#mcc50b5a211"
             y="112.286618"
             id="use97" />
          <use
             style="fill:#0065bd;stroke:#0065bd;"
             x="610.566233"
             xlink:href="#mcc50b5a211"
             y="111.359324"
             id="use99" />
          <use
             style="fill:#0065bd;stroke:#0065bd;"
             x="643.017484"
             xlink:href="#mcc50b5a211"
             y="110.432029"
             id="use101" />
          <use
             style="fill:#0065bd;stroke:#0065bd;"
             x="675.470764"
             xlink:href="#mcc50b5a211"
             y="109.504735"
             id="use103" />
          <use
             style="fill:#0065bd;stroke:#0065bd;"
             x="707.922015"
             xlink:href="#mcc50b5a211"
             y="108.575411"
             id="use105" />
          <use
             style="fill:#0065bd;stroke:#0065bd;"
             x="740.375295"
             xlink:href="#mcc50b5a211"
             y="107.731309"
             id="use107" />
        </g>
      </g>
      <g
         id="EllipseCollection_1">
        <path
           clip-path="url(#p668b00f55f)"
           d="M 652.505513 51.490996  C 652.962916 51.490996 653.401646 51.309268 653.725079 50.985835  C 654.048512 50.662403 654.23024 50.223672 654.23024 49.766269  C 654.23024 49.308866 654.048512 48.870136 653.725079 48.546703  C 653.401646 48.22327 652.962916 48.041542 652.505513 48.041542  C 652.04811 48.041542 651.609379 48.22327 651.285946 48.546703  C 650.962514 48.870136 650.780785 49.308866 650.780785 49.766269  C 650.780785 50.223672 650.962514 50.662403 651.285946 50.985835  C 651.609379 51.309268 652.04811 51.490996 652.505513 51.490996  z "
           id="path112" />
        <path
           clip-path="url(#p668b00f55f)"
           d="M 672.786276 50.800091  C 673.243679 50.800091 673.68241 50.618363 674.005843 50.29493  C 674.329275 49.971497 674.511004 49.532767 674.511004 49.075364  C 674.511004 48.617961 674.329275 48.17923 674.005843 47.855797  C 673.68241 47.532365 673.243679 47.350636 672.786276 47.350636  C 672.328873 47.350636 671.890143 47.532365 671.56671 47.855797  C 671.243277 48.17923 671.061549 48.617961 671.061549 49.075364  C 671.061549 49.532767 671.243277 49.971497 671.56671 50.29493  C 671.890143 50.618363 672.328873 50.800091 672.786276 50.800091  z "
           id="path114" />
        <path
           clip-path="url(#p668b00f55f)"
           d="M 693.065011 50.109185  C 693.522414 50.109185 693.961144 49.927457 694.284577 49.604025  C 694.60801 49.280592 694.789738 48.841861 694.789738 48.384458  C 694.789738 47.927055 694.60801 47.488325 694.284577 47.164892  C 693.961144 46.841459 693.522414 46.659731 693.065011 46.659731  C 692.607608 46.659731 692.168877 46.841459 691.845445 47.164892  C 691.522012 47.488325 691.340284 47.927055 691.340284 48.384458  C 691.340284 48.841861 691.522012 49.280592 691.845445 49.604025  C 692.168877 49.927457 692.607608 50.109185 693.065011 50.109185  z "
           id="path116" />
        <path
           clip-path="url(#p668b00f55f)"
           d="M 713.343745 49.417265  C 713.801148 49.417265 714.239879 49.235537 714.563312 48.912105  C 714.886745 48.588672 715.068473 48.149941 715.068473 47.692538  C 715.068473 47.235135 714.886745 46.796405 714.563312 46.472972  C 714.239879 46.149539 713.801148 45.967811 713.343745 45.967811  C 712.886342 45.967811 712.447612 46.149539 712.124179 46.472972  C 711.800746 46.796405 711.619018 47.235135 711.619018 47.692538  C 711.619018 48.149941 711.800746 48.588672 712.124179 48.912105  C 712.447612 49.235537 712.886342 49.417265 713.343745 49.417265  z "
           id="path118" />
        <path
           clip-path="url(#p668b00f55f)"
           d="M 733.62248 48.727375  C 734.079883 48.727375 734.518614 48.545646 734.842046 48.222214  C 735.165479 47.898781 735.347207 47.46005 735.347207 47.002647  C 735.347207 46.545244 735.165479 46.106514 734.842046 45.783081  C 734.518614 45.459648 734.079883 45.27792 733.62248 45.27792  C 733.165077 45.27792 732.726346 45.459648 732.402914 45.783081  C 732.079481 46.106514 731.897753 46.545244 731.897753 47.002647  C 731.897753 47.46005 732.079481 47.898781 732.402914 48.222214  C 732.726346 48.545646 733.165077 48.727375 733.62248 48.727375  z "
           id="path120" />
        <path
           clip-path="url(#p668b00f55f)"
           d="M 753.913389 48.650269  C 754.370792 48.650269 754.809523 48.468541 755.132955 48.145108  C 755.456388 47.821675 755.638116 47.382945 755.638116 46.925542  C 755.638116 46.468139 755.456388 46.029408 755.132955 45.705975  C 754.809523 45.382543 754.370792 45.200815 753.913389 45.200815  C 753.455986 45.200815 753.017256 45.382543 752.693823 45.705975  C 752.37039 46.029408 752.188662 46.468139 752.188662 46.925542  C 752.188662 47.382945 752.37039 47.821675 752.693823 48.145108  C 753.017256 48.468541 753.455986 48.650269 753.913389 48.650269  z "
           id="path122" />
        <path
           clip-path="url(#p668b00f55f)"
           d="M 774.204298 48.611716  C 774.661701 48.611716 775.100432 48.429988 775.423865 48.106555  C 775.747297 47.783123 775.929025 47.344392 775.929025 46.886989  C 775.929025 46.429586 775.747297 45.990856 775.423865 45.667423  C 775.100432 45.34399 774.661701 45.162262 774.204298 45.162262  C 773.746895 45.162262 773.308165 45.34399 772.984732 45.667423  C 772.661299 45.990856 772.479571 46.429586 772.479571 46.886989  C 772.479571 47.344392 772.661299 47.783123 772.984732 48.106555  C 773.308165 48.429988 773.746895 48.611716 774.204298 48.611716  z "
           id="path124" />
        <path
           clip-path="url(#p668b00f55f)"
           d="M 794.495207 48.575193  C 794.95261 48.575193 795.391341 48.393465 795.714774 48.070032  C 796.038206 47.746599 796.219935 47.307868 796.219935 46.850465  C 796.219935 46.393062 796.038206 45.954332 795.714774 45.630899  C 795.391341 45.307466 794.95261 45.125738 794.495207 45.125738  C 794.037804 45.125738 793.599074 45.307466 793.275641 45.630899  C 792.952208 45.954332 792.77048 46.393062 792.77048 46.850465  C 792.77048 47.307868 792.952208 47.746599 793.275641 48.070032  C 793.599074 48.393465 794.037804 48.575193 794.495207 48.575193  z "
           id="path126" />
      </g>
      <g
         id="EllipseCollection_2">
        <path
           clip-path="url(#p668b00f55f)"
           d="M 901.98224 107.696815  C 902.439643 107.696815 902.878374 107.515086 903.201806 107.191654  C 903.525239 106.868221 903.706967 106.42949 903.706967 105.972087  C 903.706967 105.514684 903.525239 105.075954 903.201806 104.752521  C 902.878374 104.429088 902.439643 104.24736 901.98224 104.24736  C 901.524837 104.24736 901.086106 104.429088 900.762674 104.752521  C 900.439241 105.075954 900.257513 105.514684 900.257513 105.972087  C 900.257513 106.42949 900.439241 106.868221 900.762674 107.191654  C 901.086106 107.515086 901.524837 107.696815 901.98224 107.696815  z "
           id="path129" />
        <path
           clip-path="url(#p668b00f55f)"
           d="M 922.27112 107.475644  C 922.728523 107.475644 923.167254 107.293915 923.490686 106.970483  C 923.814119 106.64705 923.995847 106.208319 923.995847 105.750916  C 923.995847 105.293513 923.814119 104.854783 923.490686 104.53135  C 923.167254 104.207917 922.728523 104.026189 922.27112 104.026189  C 921.813717 104.026189 921.374986 104.207917 921.051554 104.53135  C 920.728121 104.854783 920.546393 105.293513 920.546393 105.750916  C 920.546393 106.208319 920.728121 106.64705 921.051554 106.970483  C 921.374986 107.293915 921.813717 107.475644 922.27112 107.475644  z "
           id="path131" />
        <path
           clip-path="url(#p668b00f55f)"
           d="M 942.56 107.256502  C 943.017403 107.256502 943.456134 107.074774 943.779566 106.751341  C 944.102999 106.427908 944.284727 105.989178 944.284727 105.531775  C 944.284727 105.074372 944.102999 104.635641 943.779566 104.312208  C 943.456134 103.988775 943.017403 103.807047 942.56 103.807047  C 942.102597 103.807047 941.663866 103.988775 941.340434 104.312208  C 941.017001 104.635641 940.835273 105.074372 940.835273 105.531775  C 940.835273 105.989178 941.017001 106.427908 941.340434 106.751341  C 941.663866 107.074774 942.102597 107.256502 942.56 107.256502  z "
           id="path133" />
        <path
           clip-path="url(#p668b00f55f)"
           d="M 962.850909 107.035331  C 963.308312 107.035331 963.747043 106.853603 964.070475 106.53017  C 964.393908 106.206737 964.575636 105.768007 964.575636 105.310604  C 964.575636 104.853201 964.393908 104.41447 964.070475 104.091037  C 963.747043 103.767605 963.308312 103.585876 962.850909 103.585876  C 962.393506 103.585876 961.954776 103.767605 961.631343 104.091037  C 961.30791 104.41447 961.126182 104.853201 961.126182 105.310604  C 961.126182 105.768007 961.30791 106.206737 961.631343 106.53017  C 961.954776 106.853603 962.393506 107.035331 962.850909 107.035331  z "
           id="path135" />
        <path
           clip-path="url(#p668b00f55f)"
           d="M 983.139789 106.81416  C 983.597192 106.81416 984.035923 106.632432 984.359355 106.308999  C 984.682788 105.985566 984.864516 105.546836 984.864516 105.089433  C 984.864516 104.63203 984.682788 104.193299 984.359355 103.869866  C 984.035923 103.546434 983.597192 103.364705 983.139789 103.364705  C 982.682386 103.364705 982.243656 103.546434 981.920223 103.869866  C 981.59679 104.193299 981.415062 104.63203 981.415062 105.089433  C 981.415062 105.546836 981.59679 105.985566 981.920223 106.308999  C 982.243656 106.632432 982.682386 106.81416 983.139789 106.81416  z "
           id="path137" />
        <path
           clip-path="url(#p668b00f55f)"
           d="M 1003.430698 106.592989  C 1003.888101 106.592989 1004.326832 106.411261 1004.650265 106.087828  C 1004.973697 105.764395 1005.155425 105.325665 1005.155425 104.868262  C 1005.155425 104.410859 1004.973697 103.972128 1004.650265 103.648695  C 1004.326832 103.325263 1003.888101 103.143535 1003.430698 103.143535  C 1002.973295 103.143535 1002.534565 103.325263 1002.211132 103.648695  C 1001.887699 103.972128 1001.705971 104.410859 1001.705971 104.868262  C 1001.705971 105.325665 1001.887699 105.764395 1002.211132 106.087828  C 1002.534565 106.411261 1002.973295 106.592989 1003.430698 106.592989  z "
           id="path139" />
        <path
           clip-path="url(#p668b00f55f)"
           d="M 1023.719578 106.371818  C 1024.176981 106.371818 1024.615712 106.19009 1024.939145 105.866657  C 1025.262577 105.543224 1025.444305 105.104494 1025.444305 104.647091  C 1025.444305 104.189688 1025.262577 103.750957 1024.939145 103.427525  C 1024.615712 103.104092 1024.176981 102.922364 1023.719578 102.922364  C 1023.262175 102.922364 1022.823445 103.104092 1022.500012 103.427525  C 1022.176579 103.750957 1021.994851 104.189688 1021.994851 104.647091  C 1021.994851 105.104494 1022.176579 105.543224 1022.500012 105.866657  C 1022.823445 106.19009 1023.262175 106.371818 1023.719578 106.371818  z "
           id="path141" />
        <path
           clip-path="url(#p668b00f55f)"
           d="M 1044.008458 106.150647  C 1044.465861 106.150647 1044.904592 105.968919 1045.228025 105.645486  C 1045.551457 105.322054 1045.733185 104.883323 1045.733185 104.42592  C 1045.733185 103.968517 1045.551457 103.529786 1045.228025 103.206354  C 1044.904592 102.882921 1044.465861 102.701193 1044.008458 102.701193  C 1043.551055 102.701193 1043.112325 102.882921 1042.788892 103.206354  C 1042.465459 103.529786 1042.283731 103.968517 1042.283731 104.42592  C 1042.283731 104.883323 1042.465459 105.322054 1042.788892 105.645486  C 1043.112325 105.968919 1043.551055 106.150647 1044.008458 106.150647  z "
           id="path143" />
      </g>
      <g
         id="EllipseCollection_3">
        <path
           clip-path="url(#p668b00f55f)"
           d="M 34.326735 132.315775  C 34.784138 132.315775 35.222868 132.134046 35.546301 131.810614  C 35.869734 131.487181 36.051462 131.04845 36.051462 130.591047  C 36.051462 130.133644 35.869734 129.694914 35.546301 129.371481  C 35.222868 129.048048 34.784138 128.86632 34.326735 128.86632  C 33.869332 128.86632 33.430601 129.048048 33.107168 129.371481  C 32.783735 129.694914 32.602007 130.133644 32.602007 130.591047  C 32.602007 131.04845 32.783735 131.487181 33.107168 131.810614  C 33.430601 132.134046 33.869332 132.315775 34.326735 132.315775  z "
           id="path146" />
        <path
           clip-path="url(#p668b00f55f)"
           d="M 58.655535 131.356015  C 59.112938 131.356015 59.551668 131.174286 59.875101 130.850854  C 60.198534 130.527421 60.380262 130.08869 60.380262 129.631287  C 60.380262 129.173884 60.198534 128.735154 59.875101 128.411721  C 59.551668 128.088288 59.112938 127.90656 58.655535 127.90656  C 58.198132 127.90656 57.759401 128.088288 57.435968 128.411721  C 57.112535 128.735154 56.930807 129.173884 56.930807 129.631287  C 56.930807 130.08869 57.112535 130.527421 57.435968 130.850854  C 57.759401 131.174286 58.198132 131.356015 58.655535 131.356015  z "
           id="path148" />
        <path
           clip-path="url(#p668b00f55f)"
           d="M 82.986364 130.394225  C 83.443767 130.394225 83.882497 130.212497 84.20593 129.889065  C 84.529363 129.565632 84.711091 129.126901 84.711091 128.669498  C 84.711091 128.212095 84.529363 127.773365 84.20593 127.449932  C 83.882497 127.126499 83.443767 126.944771 82.986364 126.944771  C 82.528961 126.944771 82.09023 127.126499 81.766797 127.449932  C 81.443365 127.773365 81.261636 128.212095 81.261636 128.669498  C 81.261636 129.126901 81.443365 129.565632 81.766797 129.889065  C 82.09023 130.212497 82.528961 130.394225 82.986364 130.394225  z "
           id="path150" />
        <path
           clip-path="url(#p668b00f55f)"
           d="M 107.316178 129.432436  C 107.773581 129.432436 108.212312 129.250708 108.535745 128.927275  C 108.859177 128.603843 109.040905 128.165112 109.040905 127.707709  C 109.040905 127.250306 108.859177 126.811576 108.535745 126.488143  C 108.212312 126.16471 107.773581 125.982982 107.316178 125.982982  C 106.858775 125.982982 106.420045 126.16471 106.096612 126.488143  C 105.773179 126.811576 105.591451 127.250306 105.591451 127.707709  C 105.591451 128.165112 105.773179 128.603843 106.096612 128.927275  C 106.420045 129.250708 106.858775 129.432436 107.316178 129.432436  z "
           id="path152" />
        <path
           clip-path="url(#p668b00f55f)"
           d="M 131.646399 128.472676  C 132.103802 128.472676 132.542532 128.290948 132.865965 127.967515  C 133.189398 127.644083 133.371126 127.205352 133.371126 126.747949  C 133.371126 126.290546 133.189398 125.851816 132.865965 125.528383  C 132.542532 125.20495 132.103802 125.023222 131.646399 125.023222  C 131.188996 125.023222 130.750265 125.20495 130.426832 125.528383  C 130.103399 125.851816 129.921671 126.290546 129.921671 126.747949  C 129.921671 127.205352 130.103399 127.644083 130.426832 127.967515  C 130.750265 128.290948 131.188996 128.472676 131.646399 128.472676  z "
           id="path154" />
        <path
           clip-path="url(#p668b00f55f)"
           d="M 155.976822 127.510887  C 156.434225 127.510887 156.872955 127.329159 157.196388 127.005726  C 157.519821 126.682294 157.701549 126.243563 157.701549 125.78616  C 157.701549 125.328757 157.519821 124.890026 157.196388 124.566594  C 156.872955 124.243161 156.434225 124.061433 155.976822 124.061433  C 155.519419 124.061433 155.080688 124.243161 154.757255 124.566594  C 154.433823 124.890026 154.252095 125.328757 154.252095 125.78616  C 154.252095 126.243563 154.433823 126.682294 154.757255 127.005726  C 155.080688 127.329159 155.519419 127.510887 155.976822 127.510887  z "
           id="path156" />
        <path
           clip-path="url(#p668b00f55f)"
           d="M 180.305622 126.551127  C 180.763025 126.551127 181.201755 126.369399 181.525188 126.045966  C 181.848621 125.722534 182.030349 125.283803 182.030349 124.8264  C 182.030349 124.368997 181.848621 123.930266 181.525188 123.606834  C 181.201755 123.283401 180.763025 123.101673 180.305622 123.101673  C 179.848219 123.101673 179.409488 123.283401 179.086055 123.606834  C 178.762623 123.930266 178.580895 124.368997 178.580895 124.8264  C 178.580895 125.283803 178.762623 125.722534 179.086055 126.045966  C 179.409488 126.369399 179.848219 126.551127 180.305622 126.551127  z "
           id="path158" />
        <path
           clip-path="url(#p668b00f55f)"
           d="M 204.636451 125.589338  C 205.093854 125.589338 205.532584 125.40761 205.856017 125.084177  C 206.17945 124.760744 206.361178 124.322014 206.361178 123.864611  C 206.361178 123.407208 206.17945 122.968477 205.856017 122.645045  C 205.532584 122.321612 205.093854 122.139884 204.636451 122.139884  C 204.179048 122.139884 203.740317 122.321612 203.416885 122.645045  C 203.093452 122.968477 202.911724 123.407208 202.911724 123.864611  C 202.911724 124.322014 203.093452 124.760744 203.416885 125.084177  C 203.740317 125.40761 204.179048 125.589338 204.636451 125.589338  z "
           id="path160" />
      </g>
    </g>
  </g>
  <defs
     id="defs168">
    <clipPath
       id="p668b00f55f">
      <rect
         height="152.181818"
         width="1116"
         x="10.7"
         y="7.2"
         id="rect165" />
    </clipPath>
  </defs>
</svg>
